<svg xmlns="http://www.w3.org/2000/svg" width="32" height="32" viewBox="0 0 32 32" fill="none"><path d="M26.7233 5.71704L30.1623 19.6235C30.2881 20.1317 29.9874 20.6484 29.4902 20.7771L9.27562 26.0109C8.63108 26.1775 7.94958 25.968 7.5026 25.4644L2.82365 20.1972C2.41971 19.7426 2.2641 19.113 2.40813 18.5162L4.07575 11.6065C4.23523 10.9458 4.73739 10.4291 5.38137 10.2626L25.5959 5.02928C26.0926 4.90054 26.5975 5.20828 26.7233 5.71704Z" fill="#EF4444"></path><path d="M28.8525 11.6417V26.1156C28.8525 26.6046 28.4651 27.0004 27.9878 27.0004H7.0735C6.4091 27.0004 5.79823 26.6255 5.48534 26.0253L2.2119 19.7457C1.92937 19.2036 1.92937 18.5537 2.2119 18.0122L5.48534 11.732C5.79823 11.1318 6.40855 10.7568 7.0735 10.7568H27.9878C28.4656 10.7568 28.8525 11.1532 28.8525 11.6417Z" fill="white"></path><path d="M7.83626 18.8781C7.83626 19.5766 7.28278 20.143 6.59962 20.143C5.91646 20.143 5.36353 19.5766 5.36353 18.8781C5.36353 18.1796 5.91701 17.6133 6.59962 17.6133C7.28223 17.6133 7.83626 18.1796 7.83626 18.8781Z" fill="#FEE2E2"></path><path d="M16.4658 13.9346C15.3241 13.9346 14.3954 14.8843 14.3954 16.0526C14.3954 17.2209 15.3236 18.1712 16.4658 18.1712C17.6081 18.1712 18.5363 17.2215 18.5363 16.0526C18.5363 14.8838 17.6076 13.9346 16.4658 13.9346ZM16.4658 16.759C16.0845 16.759 15.7755 16.4434 15.7755 16.0526C15.7755 15.6619 16.084 15.3462 16.4658 15.3462C16.8477 15.3462 17.1562 15.6624 17.1562 16.0526C17.1562 16.4428 16.8472 16.759 16.4658 16.759Z" fill="#EF4444"></path><path d="M22.5611 15.033L17.0401 23.5069C16.832 23.8265 16.4055 23.9213 16.0832 23.7022C15.7659 23.486 15.6804 23.0478 15.8917 22.7237L21.4128 14.2498C21.6219 13.9251 22.0501 13.8365 22.3696 14.0533C22.6869 14.2701 22.7725 14.7083 22.5611 15.033Z" fill="#EF4444"></path><path d="M21.9868 19.585C20.8451 19.585 19.9164 20.5347 19.9164 21.703C19.9164 22.8713 20.8446 23.8216 21.9868 23.8216C23.1291 23.8216 24.0573 22.8718 24.0573 21.7036C24.0573 20.5353 23.1286 19.585 21.9868 19.585ZM21.9868 22.4094C21.6055 22.4094 21.2965 22.0937 21.2965 21.703C21.2965 21.3123 21.605 20.9966 21.9868 20.9966C22.3687 20.9966 22.6766 21.3128 22.6772 21.703C22.6772 22.0932 22.3681 22.4094 21.9868 22.4094Z" fill="#EF4444"></path></svg>